#tb 0: 1/5
#media_type 0: video
#codec_id 0: rawvideo
#dimensions 0: 892x441
#sar 0: 0/1
0,          0,          0,        1,  1180116, 0x056fdadd
0,          1,          1,        1,  1180116, 0x6f73e080
0,          2,          2,        1,  1180116, 0x5244d9e5
0,          3,          3,        1,  1180116, 0x629bf10f
0,          4,          4,        1,  1180116, 0x97c726cb
